<?xml version="1.0" encoding="UTF-8" standalone="no"?>
<svg
   width="1330.7571"
   height="726.69702"
   viewBox="0 0 1330.757 726.69703"
   version="1.1"
   id="svg10"
   sodipodi:docname="lighthouse.svg"
   xml:space="preserve"
   inkscape:version="1.4.3 (0d15f75, 2025-12-25)"
   xmlns:inkscape="http://www.inkscape.org/namespaces/inkscape"
   xmlns:sodipodi="http://sodipodi.sourceforge.net/DTD/sodipodi-0.dtd"
   xmlns="http://www.w3.org/2000/svg"
   xmlns:svg="http://www.w3.org/2000/svg"><defs
     id="defs10"><linearGradient
       id="swatch28"
       inkscape:swatch="solid"><stop
         style="stop-color:#000000;stop-opacity:1;"
         offset="0"
         id="stop28" /></linearGradient><filter
       style="color-interpolation-filters:sRGB"
       inkscape:label="Invert"
       id="filter30"
       x="0"
       y="0"
       width="1"
       height="1"><feColorMatrix
         values="1 0 0 0 0 0 1 0 0 0 0 0 1 0 0 -0.21 -0.72 -0.07 2 0 "
         result="fbSourceGraphic"
         id="feColorMatrix30" /><feColorMatrix
         result="fbSourceGraphicAlpha"
         in="fbSourceGraphic"
         values="0 0 0 -1 0 0 0 0 -1 0 0 0 0 -1 0 0 0 0 1 0"
         id="feColorMatrix31" /><feColorMatrix
         id="feColorMatrix32"
         values="1 0 0 0 0 0 1 0 0 0 0 0 1 0 0 -0.21 -0.72 -0.07 2 0 "
         result="fbSourceGraphic"
         in="fbSourceGraphic" /><feColorMatrix
         result="fbSourceGraphicAlpha"
         in="fbSourceGraphic"
         values="0 0 0 -1 0 0 0 0 -1 0 0 0 0 -1 0 0 0 0 1 0"
         id="feColorMatrix33" /><feColorMatrix
         id="feColorMatrix34"
         values="-1 0 0 0 1 0 -1 0 0 1 0 0 -1 0 1 -0.21 -0.72 -0.07 2 0 "
         result="color2"
         in="fbSourceGraphic" /></filter><filter
       style="color-interpolation-filters:sRGB;"
       inkscape:label="Invert"
       id="filter35"
       x="0"
       y="0"
       width="1"
       height="1"><feColorMatrix
         values="-1 0 0 0 1 0 -1 0 0 1 0 0 -1 0 1 -0.21 -0.72 -0.07 2 0 "
         result="color2"
         id="feColorMatrix35" /></filter></defs><sodipodi:namedview
     id="namedview10"
     pagecolor="#ffffff"
     bordercolor="#000000"
     borderopacity="0.25"
     inkscape:showpageshadow="2"
     inkscape:pageopacity="0.0"
     inkscape:pagecheckerboard="0"
     inkscape:deskcolor="#d1d1d1"
     inkscape:zoom="0.29946407"
     inkscape:cx="667.85975"
     inkscape:cy="571.02008"
     inkscape:window-width="1440"
     inkscape:window-height="878"
     inkscape:window-x="-6"
     inkscape:window-y="-6"
     inkscape:window-maximized="1"
     inkscape:current-layer="g24" /><g
     style="fill:#000000"
     id="g15"
     transform="matrix(27.888168,0,0,27.888168,1066.8033,120.35576)"><g
       id="g24">
	<g
   id="g23"
   transform="matrix(1,0,0,1.0015069,-5.0713682,0.00650321)">
		<path
   style="fill:#000000;filter:url(#filter35)"
   d="m -22.199656,20.842572 c -3.710429,-3.365107 -5.907212,-6.934664 -6.523318,-10.599751 -0.254781,-1.5156373 -0.210736,-3.1844531 0.119717,-4.535974 0.09224,-0.3772745 0.329618,-1.1094696 0.374105,-1.1539563 0.01285,-0.012853 0.65541,0.2911891 0.699084,0.3307894 0.0068,0.00616 -0.04395,0.1616233 -0.112771,0.3454701 -0.314805,0.8409808 -0.455876,1.6755882 -0.48076,2.8442919 -0.02516,1.1816135 0.06857,1.9811209 0.365725,3.1196029 0.502625,1.925701 1.578894,3.983813 3.063457,5.858144 0.925054,1.167924 2.310396,2.599507 3.479224,3.595356 l 0.195313,0.166408 -0.262086,0.308704 c -0.144147,0.169787 -0.264374,0.308159 -0.26717,0.307493 -0.0028,-6.67e-4 -0.295531,-0.264627 -0.65052,-0.586578 z M 2.1144018,21.119313 C 1.9847413,20.967958 1.8786554,20.832441 1.8786554,20.818164 c 0,-0.01428 0.1895965,-0.192794 0.4213256,-0.396706 C 3.2738542,19.564492 4.4823647,18.318139 5.2679665,17.360535 7.3213693,14.857555 8.5519327,12.237332 8.888406,9.6515796 9.0898924,8.1031841 8.9198948,6.3917243 8.4424845,5.1622399 L 8.3396385,4.8973784 8.6958303,4.718633 9.0520222,4.5398876 9.1215676,4.7021305 c 0.2037292,0.4752808 0.410028,1.3273166 0.5254312,2.1700853 0.08666,0.632865 0.086416,2.0590315 -4.701e-4,2.7430988 -0.4542534,3.5764084 -2.2800273,6.9409144 -5.5261679,10.1835304 -0.6683721,0.667646 -1.6803527,1.595659 -1.7400369,1.595659 -0.016597,0 -0.1362615,-0.123836 -0.2659221,-0.275191 z M -26.44877,20.618799 c -0.270405,-0.0519 -0.639926,-0.17078 -0.83545,-0.268765 -0.657165,-0.329331 -1.233706,-0.945693 -1.546436,-1.653248 l -0.09088,-0.205622 0.114427,-0.05917 c 0.06293,-0.03255 0.24834,-0.104438 0.412012,-0.159762 1.058908,-0.357934 2.257602,-0.253311 3.16761,0.276471 0.263426,0.153359 0.679484,0.542051 0.878006,0.820255 0.184773,0.258936 0.353775,0.608659 0.327377,0.677453 -0.02865,0.07466 -0.65459,0.367456 -1.010292,0.472583 -0.268504,0.07936 -0.407049,0.0972 -0.824722,0.106197 -0.276103,0.0059 -0.542345,0.0031 -0.591649,-0.0064 z M 6.3070566,20.617978 C 5.8539397,20.545705 5.1210752,20.266788 4.896551,20.081161 l -0.083778,-0.06926 0.1446406,-0.279511 c 0.5786221,-1.11816 1.7356176,-1.727104 3.1572333,-1.6617 0.2643257,0.01216 0.5737715,0.05107 0.7465999,0.09386 0.3873746,0.09593 0.8702013,0.28351 0.8702013,0.338078 0,0.08563 -0.2464744,0.548622 -0.4292434,0.806313 -0.4623284,0.651851 -1.0131341,1.043313 -1.7575352,1.249096 -0.1961161,0.05421 -1.0225644,0.09424 -1.2376127,0.05994 z M -14.045902,20.014101 c -0.309883,-0.168431 -0.292589,-0.659945 0.02793,-0.793868 0.06436,-0.02689 0.178474,-0.04889 0.253585,-0.04889 h 0.136565 l -0.01324,-0.138785 c -0.01633,-0.17122 0.06758,-0.34414 0.200199,-0.412582 0.0539,-0.02782 0.223054,-0.06226 0.375897,-0.07653 l 0.277896,-0.02596 2.21e-4,-0.112324 c 1.22e-4,-0.06178 0.03984,-1.524213 0.08827,-3.249855 0.04843,-1.725643 0.09925,-3.624884 0.112941,-4.220537 l 0.02489,-1.0830062 -0.265558,-0.010648 -0.265557,-0.010648 -0.01793,-0.2510025 -0.01793,-0.2510025 -0.20618,-0.010754 -0.206181,-0.010754 V 8.489122 7.6712971 l 0.220405,-0.023037 c 0.121223,-0.01267 0.35348,-0.023037 0.516127,-0.023037 l 0.295722,0 0.02111,-0.3137531 c 0.01161,-0.1725643 0.02989,-0.7816936 0.04063,-1.3536207 0.01074,-0.5719272 0.02879,-1.1487847 0.04012,-1.2819057 l 0.0206,-0.2420381 h 0.175648 0.175648 V 3.3223231 2.2107406 l -0.30594,0 c -0.185147,0 -0.354727,-0.020384 -0.429505,-0.051628 -0.233256,-0.097461 -0.338102,-0.4112384 -0.209918,-0.6282357 0.08554,-0.144808 0.230859,-0.2165733 0.438544,-0.2165733 l 0.181338,0 0.03922,-0.1523944 c 0.126223,-0.49048566 0.264505,-0.79187648 0.518119,-1.12925786 0.371925,-0.49476928 0.987816,-0.88595722 1.602364,-1.01775434 l 0.176294,-0.0378083 -0.124818,-0.1381591 c -0.54728,-0.6057733 0.2410383,-1.4841371 0.9021674,-1.0052176 0.3340136,0.2419582 0.3772916,0.6932977 0.096302,1.0043195 l -0.1240071,0.1372612 0.1707583,0.0251918 c 0.2534843,0.0373963 0.7508633,0.23439871 0.9954809,0.39429121 0.2750677,0.17979601 0.6827108,0.59616934 0.837438,0.85537307 0.1405405,0.23543755 0.2690356,0.54238146 0.3329023,0.79522356 0.061566,0.2437339 0.086876,0.2689313 0.270131,0.2689313 0.2915829,0 0.4785653,0.171353 0.4773764,0.4374737 -6.773e-4,0.1515992 -0.062906,0.2712243 -0.1903203,0.3658634 -0.082128,0.061002 -0.1699976,0.078551 -0.4661475,0.0931 l -0.3649424,0.017929 v 1.0936538 1.0936538 l 0.1863258,0.010771 0.1863258,0.010771 0.018544,0.1505873 c 0.010199,0.082823 0.027516,0.6265956 0.038481,1.2083835 0.010965,0.581788 0.029885,1.2393249 0.042043,1.4611932 l 0.022105,0.4033969 h 0.5150594 0.5150595 v 0.8247225 0.8247225 h -0.2135741 l -0.2135741,0 -0.010535,0.2599669 -0.010535,0.2599669 -0.2599669,0.010535 -0.2599668,0.010535 1.38e-4,0.3480398 c 7.59e-5,0.191422 0.048384,2.074578 0.1073507,4.184792 0.058967,2.110214 0.1073126,3.903451 0.1074345,3.98497 l 2.218e-4,0.148217 0.2420381,0.02588 c 0.133121,0.01423 0.2861387,0.04866 0.3400393,0.0765 0.126437,0.06531 0.2067876,0.223149 0.2067876,0.406204 0,0.142302 0.00254,0.145211 0.1266529,0.145211 0.2941019,0 0.4948771,0.181845 0.4948771,0.448218 0,0.180821 -0.096896,0.334851 -0.251204,0.399325 -0.1778332,0.0743 -8.6277863,0.06969 -8.7648083,-0.0048 z m 3.845898,-2.002292 c 0.01234,-0.477125 0.01972,-0.523579 0.102596,-0.645967 0.098826,-0.145937 0.3251401,-0.274238 0.4837345,-0.274238 0.164574,0 0.4012426,0.134986 0.4916885,0.280439 0.073492,0.118189 0.083315,0.185114 0.094358,0.642891 l 0.012327,0.51097 h 0.8392891 0.8392891 l -7.14e-4,-0.259967 c -3.927e-4,-0.142982 -0.024234,-1.050625 -0.052981,-2.016985 -0.028747,-0.966359 -0.052629,-1.777187 -0.053072,-1.801839 -6.351e-4,-0.03535 -0.4590155,-0.04482 -2.170184,-0.04482 h -2.1693785 l -8.11e-4,0.08068 c -4.45e-4,0.04437 -0.02428,0.879406 -0.05298,1.855626 -0.02869,0.976221 -0.05253,1.867728 -0.05298,1.981127 l -8.1e-4,0.206181 h 0.838664 0.838664 z m 2.7064251,-5.680289 c -0.011696,-0.212007 -0.030434,-0.813069 -0.041642,-1.335692 -0.011207,-0.522623 -0.028888,-0.994597 -0.03929,-1.0488315 l -0.018913,-0.098608 h -2.0360315 -2.0360316 l -0.02386,1.1564046 c -0.01312,0.636022 -0.03359,1.281457 -0.04549,1.4343 l -0.02162,0.277895 h 2.1420704 2.1420705 z M -7.6509413,6.9618595 c -0.00519,-0.3747109 -0.018942,-0.8950929 -0.030566,-1.1564044 l -0.021136,-0.4751119 -1.869881,5.491e-4 c -1.028435,3.02e-4 -1.891445,0.014218 -1.917801,0.030924 -0.03733,0.023664 -0.05372,0.2750738 -0.07418,1.1379266 -0.01444,0.6091533 -0.02008,1.1197907 -0.01253,1.1347498 0.0076,0.014959 0.89613,0.023027 1.9746216,0.017929 L -7.641511,7.643152 Z M -8.1255872,3.3223231 V 2.2107406 H -9.6136735 -11.10176 v 1.1115825 1.1115826 h 1.4880865 1.4880863 z m 0.3227175,-2.0755829 c 0,-0.03716 -0.066623,-0.2006706 -0.1480501,-0.36335786 -0.3210228,-0.64138398 -0.9575777,-1.03923682 -1.6627537,-1.03923682 -0.6859425,0 -1.3543665,0.41200958 -1.6476795,1.01561165 -0.06878,0.14153133 -0.135363,0.30170333 -0.147972,0.35593773 l -0.02293,0.098608 h 1.8146912 c 1.7536116,0 1.8146911,-0.00227 1.8146911,-0.067563 z M -22.706067,18.909191 c -0.494485,-0.525667 -0.749802,-1.129328 -0.791494,-1.871374 -0.04434,-0.78919 0.203885,-1.69308 0.644989,-2.348666 0.165137,-0.245432 0.495471,-0.645435 0.533019,-0.645435 0.06336,0 0.396554,0.340067 0.607564,0.620097 0.252198,0.334693 0.464614,0.76099 0.575441,1.154849 0.110582,0.392992 0.11002,1.052927 -0.0013,1.470158 -0.09003,0.33759 -0.297038,0.784923 -0.509507,1.101031 -0.170918,0.254289 -0.684827,0.781488 -0.761787,0.781488 -0.02771,0 -0.161345,-0.117967 -0.296973,-0.262148 z M 2.96981,18.948517 C 2.2178098,18.245058 1.8338386,17.326361 1.889776,16.364406 c 0.024571,-0.42255 0.090314,-0.691507 0.257794,-1.054649 0.1934764,-0.419509 0.572838,-0.932286 0.8718106,-1.178412 l 0.1187866,-0.09779 0.1428796,0.139518 c 0.2079725,0.20308 0.4804883,0.612743 0.6597509,0.991779 0.604041,1.277197 0.5120153,2.584161 -0.2518536,3.576866 -0.1624761,0.21115 -0.3901099,0.429621 -0.4476395,0.429621 -0.018314,0 -0.1404864,-0.10027 -0.2714946,-0.222822 z m -31.85689,-1.609645 c -0.334226,-0.05122 -0.840652,-0.228538 -1.113192,-0.389762 -0.4693,-0.277621 -0.930341,-0.791375 -1.210778,-1.349214 -0.116462,-0.231664 -0.25777,-0.621406 -0.25777,-0.710957 0,-0.06797 0.352195,-0.179202 0.753004,-0.237808 0.410374,-0.06001 1.192518,-0.02524 1.548979,0.06885 0.368635,0.0973 0.784357,0.266492 1.047346,0.426249 0.27716,0.168367 0.708301,0.578379 0.891017,0.847352 0.155627,0.229097 0.356867,0.643911 0.413713,0.852784 l 0.03572,0.131262 -0.21165,0.09498 c -0.519151,0.232981 -1.351248,0.349812 -1.896393,0.266264 z m 37.6958777,0.0037 c -0.3895868,-0.0546 -1.0622638,-0.26146 -1.1700005,-0.359792 -0.042611,-0.03889 0.066281,-0.35813 0.2319557,-0.680027 0.4343646,-0.843945 1.2728323,-1.429441 2.3358201,-1.631087 0.368184,-0.06984 1.120631,-0.07014 1.48415,-5.89e-4 0.322815,0.06176 0.622465,0.155144 0.622465,0.193977 0,0.06331 -0.177242,0.539835 -0.268007,0.720549 -0.446485,0.888954 -1.153348,1.474551 -2.033716,1.684821 -0.3473583,0.08296 -0.8922608,0.115653 -1.2026673,0.07215 z M -25.150973,15.718111 c -0.08895,-0.110598 -0.30123,-0.587898 -0.373243,-0.83922 -0.115985,-0.404791 -0.115084,-1.160727 0.0019,-1.570254 0.191064,-0.669017 0.570463,-1.29623 1.082897,-1.790218 0.2699,-0.260185 0.813532,-0.666021 0.892159,-0.666021 0.0719,0 0.377315,0.626858 0.49144,1.00868 0.136331,0.456114 0.164918,1.080698 0.07025,1.534749 -0.185604,0.890163 -0.881339,1.756241 -1.771141,2.204786 -0.293178,0.14779 -0.355039,0.166227 -0.39423,0.117498 z M 5.7665714,15.681137 C 4.4931261,15.13777 3.6681671,13.867257 3.7572063,12.58653 c 0.03747,-0.53897 0.2352758,-1.163518 0.5018988,-1.584687 0.1134425,-0.179198 0.1104124,-0.17951 0.4501416,0.04634 0.8159798,0.542462 1.4536816,1.453383 1.6703179,2.385953 0.080697,0.347383 0.08217,0.970455 0.00308,1.303544 -0.071117,0.299518 -0.2165382,0.670882 -0.3413614,0.87174 l -0.092804,0.149334 z m -35.4425164,-1.65368 c -0.716151,-0.117977 -1.37001,-0.453493 -1.833879,-0.941024 -0.514708,-0.540964 -0.797521,-1.250237 -0.844322,-2.117498 l -0.02177,-0.403397 h 0.251634 c 0.518925,0 1.211673,0.170282 1.713257,0.421129 0.94981,0.475008 1.58149,1.209173 1.809842,2.103476 0.07661,0.300026 0.124715,0.844421 0.08039,0.909732 -0.048,0.07072 -0.786285,0.08835 -1.155152,0.02758 z m 39.2101767,0.02198 -0.1792875,-0.02365 -0.01085,-0.230831 c -0.012716,-0.270542 0.067951,-0.702749 0.1936677,-1.037653 0.319347,-0.850727 1.107185,-1.582698 2.089266,-1.941114 0.386165,-0.140933 0.942264,-0.250651 1.270407,-0.250651 h 0.268193 l 0.01778,0.116537 c 0.0098,0.0641 0.0037,0.26893 -0.0136,0.455187 -0.119328,1.288033 -0.807547,2.237368 -1.951377,2.691746 -0.465126,0.184768 -1.212761,0.282619 -1.6842023,0.22043 z M -27.071787,12.14684 c -0.261796,-0.583358 -0.327219,-1.334925 -0.168864,-1.939877 0.264527,-1.0105493 1.05138,-1.9690344 2.019105,-2.4595183 0.132629,-0.067222 0.255293,-0.1222214 0.272588,-0.1222214 0.0557,0 0.256792,0.4844285 0.352021,0.848005 0.07515,0.2869221 0.09312,0.4407165 0.09575,0.8193688 0.0033,0.481454 -0.02971,0.6742457 -0.187992,1.0967449 -0.293935,0.784593 -1.085747,1.546304 -1.918933,1.845981 -0.394663,0.14195 -0.357037,0.14913 -0.463671,-0.08848 z M 7.5441404,12.273926 C 6.634849,11.950216 5.8528851,11.230327 5.527401,10.417282 5.2215275,9.6532237 5.2647489,8.6568334 5.638402,7.858355 5.6984046,7.7301326 5.7685151,7.6254502 5.7942033,7.6257276 c 0.025688,2.774e-4 0.1677249,0.066382 0.3156371,0.1469001 0.7613019,0.4144231 1.3796288,1.0666851 1.734869,1.8300823 0.249227,0.535579 0.2903067,0.722474 0.2904456,1.321403 1.005e-4,0.433197 -0.013375,0.566649 -0.080776,0.799957 -0.06728,0.232887 -0.2384449,0.636334 -0.2688048,0.633587 -0.0046,-4.16e-4 -0.1132435,-0.0381 -0.2414341,-0.08373 z M -30.058396,10.404871 c -1.260981,-0.228801 -2.241077,-1.052986 -2.587455,-2.1758511 -0.157514,-0.5106175 -0.171219,-1.2630538 -0.03288,-1.8050229 0.04312,-0.1689199 0.05195,-0.1786849 0.152724,-0.1688665 0.189085,0.018422 0.671766,0.191305 0.993541,0.3558575 0.906066,0.463354 1.570073,1.2078209 1.864084,2.0899603 0.105914,0.3177828 0.113682,0.3755432 0.115734,0.8605801 0.0014,0.326671 -0.01579,0.5899086 -0.0462,0.7081856 -0.05507,0.214203 -0.04318,0.210706 -0.459554,0.135157 z m 40.532084,0.02792 c -0.05943,-0.09929 -0.111184,-0.5187503 -0.1075,-0.8712646 0.0048,-0.461441 0.07754,-0.8008154 0.25583,-1.1940321 0.324227,-0.7150692 1.040456,-1.4261773 1.8136,-1.800635 0.322096,-0.1560009 0.974257,-0.3669286 1.013417,-0.3277683 0.05705,0.057046 0.125259,0.4882 0.142715,0.902054 0.01626,0.3855639 0.0069,0.5281349 -0.05426,0.8247226 -0.240551,1.166829 -1.186687,2.0997124 -2.415691,2.3818514 -0.388888,0.08928 -0.626895,0.120517 -0.64811,0.08507 z m -37.74956,-2.9061778 c -0.107835,-0.3390676 -0.134836,-1.0026869 -0.05625,-1.3826029 0.226235,-1.0937765 1.112905,-2.1218669 2.254435,-2.6140071 0.173241,-0.074689 0.36614,-0.1398694 0.428663,-0.1448465 0.111249,-0.00886 0.115397,-0.00363 0.194049,0.2445967 0.148604,0.4689936 0.19466,1.0541808 0.119731,1.5213003 -0.158774,0.9898239 -0.803903,1.8270988 -1.767929,2.2944922 -0.343643,0.16661 -0.834902,0.3231054 -1.014269,0.3231054 -0.06905,0 -0.09317,-0.036854 -0.158426,-0.2420381 z M 7.5799979,7.6924399 C 7.2727897,7.6103487 6.7346102,7.3652806 6.4799538,7.1915184 6.2469992,7.0325641 5.8791129,6.6793085 5.717987,6.4598545 5.5050821,6.1698774 5.4005623,5.9673077 5.2802815,5.6115376 5.0891239,5.0461262 5.0937944,4.2198742 5.2917744,3.57834 5.3605693,3.3554172 5.3645513,3.3507599 5.4685691,3.3715635 5.6600656,3.4098628 6.1181905,3.6092712 6.4005303,3.7772191 7.1562184,4.2267348 7.8111246,5.0084102 8.058079,5.7556166 8.251428,6.3406299 8.2640913,6.9582194 8.095088,7.5605425 8.0266221,7.8045534 8.0128013,7.8080924 7.5799979,7.6924399 Z M -29.917662,6.8563779 c -0.744595,-0.3569865 -1.326631,-0.9329271 -1.656567,-1.6392182 -0.214882,-0.4599951 -0.267098,-0.696464 -0.267972,-1.213544 -8.14e-4,-0.4814045 0.05186,-0.7791665 0.214074,-1.2101279 0.09635,-0.2559858 0.317122,-0.6728167 0.375438,-0.7088579 0.06586,-0.040701 0.661693,0.3857418 0.971801,0.6955225 0.501052,0.5005229 0.858753,1.1148851 1.042716,1.7908927 0.058,0.2131402 0.0749,0.3803704 0.0749,0.7413694 0,0.5341408 -0.06965,0.8576779 -0.276972,1.2865009 -0.201265,0.416305 -0.175305,0.4023048 -0.477414,0.2574625 z M 10.347453,6.7556789 C 10.288929,6.6521403 10.200811,6.4544759 10.151635,6.3164245 9.7291105,5.1302702 10.110554,3.7562451 11.144984,2.7382126 11.405649,2.4816795 12.006863,2.054962 12.0757,2.0776281 c 0.06045,0.019904 0.354375,0.617938 0.444328,0.9040488 0.118939,0.3783031 0.151735,0.5990061 0.151735,1.0210971 0,1.0075784 -0.535222,1.9652133 -1.439807,2.5761453 -0.224592,0.1516834 -0.643638,0.3646199 -0.717976,0.3648364 -0.0352,1.025e-4 -0.104218,-0.077843 -0.166527,-0.1880768 z M -21.013171,5.6503095 c -0.11803,-0.1402702 -0.122853,-0.3170233 -0.01215,-0.4453501 0.07593,-0.088014 0.283073,-0.1356739 3.515321,-0.8087933 1.889053,-0.3933974 3.497707,-0.7152679 3.574786,-0.7152679 0.204549,0 0.33973,0.1260934 0.33973,0.3168904 0,0.2092223 -0.109771,0.3115075 -0.406282,0.3785762 -0.266657,0.060316 -3.130444,0.6563297 -5.262822,1.0953031 -0.77203,0.1589309 -1.460405,0.2889653 -1.529721,0.2889653 -0.09671,0 -0.147624,-0.025665 -0.21886,-0.1103237 z M 0.69535784,5.6300263 C 0.36995102,5.5616923 -1.1710251,5.2407046 -2.7290334,4.9167203 c -2.6392297,-0.5488218 -2.838254,-0.595368 -2.9134219,-0.681368 -0.1937526,-0.2216734 -0.039462,-0.555409 0.2558921,-0.5535016 0.081128,5.24e-4 1.6854228,0.3205502 3.5651005,0.7111695 C 1.2471105,5.030706 1.6047838,5.1120872 1.6808399,5.189897 1.8138733,5.3259978 1.8148653,5.540823 1.683069,5.6726194 1.5651629,5.7905255 1.4323901,5.7847999 0.69535784,5.6300263 Z M -27.861297,3.6239682 c -0.427065,-0.729556 -0.579885,-1.5905788 -0.419894,-2.365774 0.153198,-0.74227662 0.537518,-1.34520848 1.159798,-1.81952302 0.233108,-0.17767926 0.756675,-0.48915928 0.824413,-0.49045888 0.08301,-0.00159 0.350256,0.72168886 0.438462,1.18667623 0.07163,0.37757277 0.07111,1.08755367 -0.0011,1.46804667 -0.168935,0.8905526 -0.667755,1.6455106 -1.378045,2.0856534 -0.427543,0.2649342 -0.430955,0.2645807 -0.623662,-0.06462 z M 8.1433277,3.7334125 C 7.6158824,3.4246581 7.2071501,2.9659524 6.934119,2.3763604 6.5167534,1.4750879 6.5162484,0.29353737 6.932804,-0.7000076 7.0964847,-1.0904096 7.0819827,-1.0774055 7.2635213,-0.99656322 7.730603,-0.7885636 8.3715038,-0.25166812 8.6602104,0.17347118 9.2465317,1.0368676 9.3322146,2.1676304 8.8906616,3.2147506 8.7552723,3.5358193 8.5313553,3.8960432 8.4671667,3.8960432 c -0.025309,0 -0.1710369,-0.073184 -0.323839,-0.1626307 z M -14.095861,2.7951072 c -0.03944,-0.00929 -0.765558,-0.1597611 -1.613588,-0.3343792 -5.288564,-1.0889694 -5.190508,-1.067059 -5.297945,-1.1838202 -0.16392,-0.1781456 -0.12491,-0.41208161 0.08699,-0.52165815 0.09581,-0.0495465 0.142977,-0.0517505 0.330619,-0.0154493 0.518556,0.1003197 6.612891,1.36849871 6.736905,1.40189211 0.09307,0.02506 0.159157,0.073507 0.206742,0.1515499 0.08566,0.1404881 0.08797,0.2170218 0.0105,0.3481646 -0.09119,0.1543751 -0.242631,0.2049516 -0.460221,0.1537002 z m 8.4775405,-0.079603 c -0.1772459,-0.1772459 -0.1344054,-0.4231187 0.096204,-0.552141 0.031828,-0.017807 5.07114396,-1.074023 6.6133237,-1.38612 0.4214682,-0.0852942 0.5248878,-0.0706439 0.6296153,0.0891905 0.1044975,0.15948334 0.058452,0.40258154 -0.091449,0.48280594 -0.076701,0.041049 -0.3815347,0.1059728 -4.0536189,0.8633441 -1.4298178,0.2949015 -2.6673236,0.5522833 -2.7500128,0.5719596 -0.2432665,0.057886 -0.3307365,0.044287 -0.444063,-0.069039 z"
   id="path34" />
	</g>
</g></g></svg>
